<svg xmlns="http://www.w3.org/2000/svg" width="16" height="16"><g><rect id="canvas_background" width="18" height="18" x="-1" y="-1" fill="none"/></g><g><path id="svg_1" fill="currentColor" stroke="null" d="m15.875002,3.149593a6.371477,6.371477 0 0 1 -1.869013,0.510786a3.254521,3.254521 0 0 0 1.433684,-1.79936a6.581596,6.581596 0 0 1 -2.072167,0.789397a3.256262,3.256262 0 0 0 -5.630257,2.228885a3.13437,3.13437 0 0 0 0.087066,0.742962a9.268447,9.268447 0 0 1 -6.715677,-3.401372a3.257423,3.257423 0 0 0 1.009964,4.347487a3.25394,3.25394 0 0 1 -1.474315,-0.406307l0,0.040631a3.256842,3.256842 0 0 0 2.611975,3.192414a3.230142,3.230142 0 0 1 -0.859049,0.116088a3.621358,3.621358 0 0 1 -0.615265,-0.058044a3.264388,3.264388 0 0 0 3.0415,2.263711a6.551413,6.551413 0 0 1 -4.045659,1.393053a6.907222,6.907222 0 0 1 -0.777788,-0.046435a9.21911,9.21911 0 0 0 4.991774,1.462706c5.990129,0 9.263804,-4.962752 9.263804,-9.263804c0,-0.139305 -0.005804,-0.284415 -0.011609,-0.42372a6.631514,6.631514 0 0 0 1.631033,-1.689077"/></g></svg>